<svg width="18" height="18" viewBox="0 0 18 18" fill="none" xmlns="http://www.w3.org/2000/svg">
<path d="M15.3562 9.50635C15.1031 9.25322 14.7094 9.25322 14.4562 9.50635L9.64687 14.2313V2.2501C9.64687 1.9126 9.36562 1.63135 9.02812 1.63135C8.69062 1.63135 8.40937 1.9126 8.40937 2.2501V14.2595L3.54375 9.47822C3.29062 9.2251 2.89687 9.2251 2.64375 9.47822C2.39062 9.73135 2.39062 10.1251 2.64375 10.3782L8.55 16.2001C8.6625 16.3126 8.83125 16.3688 9 16.3688C9.16875 16.3688 9.30937 16.3126 9.45 16.2001L15.3562 10.3782C15.6094 10.1532 15.6094 9.73135 15.3562 9.50635Z" fill="#A1A1AA"/>
</svg>
