<svg width="84" height="80" viewBox="0 0 84 80" fill="none" xmlns="http://www.w3.org/2000/svg">
<path fill-rule="evenodd" clip-rule="evenodd" d="M12.8333 29.2969C12.8333 21.5614 15.9062 14.1428 21.376 8.67297C26.8458 3.20316 34.2644 0.130249 41.9999 0.130249C49.7354 0.130249 57.1541 3.20316 62.6239 8.67297C68.0937 14.1428 71.1666 21.5614 71.1666 29.2969V33.6094C78.2332 34.6219 83.6666 40.7011 83.6666 48.0469V49.0886C83.666 50.8953 83.304 52.6837 82.6017 54.3483C81.8994 56.013 80.8711 57.5203 79.5773 58.7814C78.2836 60.0426 76.7505 61.032 75.0685 61.6916C73.3864 62.3512 71.5894 62.6675 69.7832 62.6219C66.6999 71.4552 58.8583 77.4094 50.3958 78.9177C48.4374 79.6344 46.1208 79.2969 44.0833 79.2969C42.4256 79.2969 40.8359 78.6384 39.6638 77.4663C38.4917 76.2942 37.8333 74.7045 37.8333 73.0469C37.8333 71.3893 38.4917 69.7996 39.6638 68.6275C40.8359 67.4554 42.4256 66.7969 44.0833 66.7969H48.2499C49.2283 66.7967 50.1931 67.0262 51.0666 67.4669C51.9401 67.9077 52.6979 68.5473 53.2791 69.3344C58.6791 66.7636 62.8332 61.3344 62.8332 54.2969V29.2969C62.8332 23.7716 60.6383 18.4725 56.7313 14.5655C52.8243 10.6585 47.5253 8.46358 41.9999 8.46358C36.4746 8.46358 31.1755 10.6585 27.2685 14.5655C23.3615 18.4725 21.1666 23.7716 21.1666 29.2969V55.3386C21.1666 57.2725 20.3984 59.1271 19.0309 60.4946C17.6635 61.862 15.8088 62.6302 13.8749 62.6302C10.2834 62.6302 6.83907 61.2035 4.29951 58.664C1.75996 56.1244 0.333252 52.6801 0.333252 49.0886V48.0469C0.332352 44.5395 1.59558 41.1492 3.8914 38.4976C6.18721 35.8459 9.36179 34.1105 12.8333 33.6094V29.2969ZM12.8333 42.1511C11.6142 42.5821 10.5588 43.3806 9.81254 44.4365C9.06628 45.4925 8.66591 46.7539 8.66658 48.0469V49.0886C8.66658 51.6094 10.4583 53.7136 12.8333 54.1927V42.1511ZM71.1666 42.1511V54.1927C73.5416 53.7094 75.3332 51.6094 75.3332 49.0886V48.0469C75.3339 46.7539 74.9335 45.4925 74.1873 44.4365C73.441 43.3806 72.3857 42.5821 71.1666 42.1511Z" fill="white"/>
</svg>
