<svg width="100" height="101" viewBox="0 0 100 101" fill="none" xmlns="http://www.w3.org/2000/svg">
<path d="M55.7692 75.7969C55.7692 76.9379 55.4309 78.0533 54.7969 79.0021C54.163 79.9508 53.262 80.6903 52.2078 81.1269C51.1536 81.5636 49.9936 81.6778 48.8745 81.4552C47.7554 81.2326 46.7274 80.6832 45.9205 79.8763C45.1137 79.0695 44.5642 78.0415 44.3416 76.9224C44.119 75.8033 44.2333 74.6433 44.6699 73.5891C45.1066 72.5349 45.8461 71.6339 46.7948 70.9999C47.7435 70.366 48.859 70.0276 50 70.0276C51.5301 70.0276 52.9975 70.6355 54.0795 71.7174C55.1614 72.7993 55.7692 74.2668 55.7692 75.7969ZM50 23.8738C39.3942 23.8738 30.7692 31.6382 30.7692 41.1815V43.1046C30.7692 44.1246 31.1745 45.1029 31.8958 45.8242C32.6171 46.5455 33.5953 46.9507 34.6154 46.9507C35.6355 46.9507 36.6137 46.5455 37.335 45.8242C38.0563 45.1029 38.4616 44.1246 38.4616 43.1046V41.1815C38.4616 35.893 43.6394 31.5661 50 31.5661C56.3606 31.5661 61.5385 35.893 61.5385 41.1815C61.5385 46.4699 56.3606 50.7969 50 50.7969C48.9799 50.7969 48.0017 51.2021 47.2804 51.9234C46.5591 52.6447 46.1539 53.623 46.1539 54.643V58.4892C46.1539 59.5092 46.5591 60.4875 47.2804 61.2088C48.0017 61.9301 48.9799 62.3353 50 62.3353C51.0201 62.3353 51.9984 61.9301 52.7197 61.2088C53.4409 60.4875 53.8462 59.5092 53.8462 58.4892V58.143C62.6154 56.5324 69.2308 49.5373 69.2308 41.1815C69.2308 31.6382 60.6058 23.8738 50 23.8738ZM100 50.7969C100 60.6859 97.0676 70.3529 91.5735 78.5754C86.0794 86.7978 78.2705 93.2064 69.1342 96.9908C59.9979 100.775 49.9445 101.765 40.2455 99.8361C30.5464 97.9069 21.6373 93.1448 14.6447 86.1522C7.65206 79.1596 2.89002 70.2504 0.960758 60.5514C-0.968502 50.8523 0.0216642 40.799 3.80605 31.6627C7.59043 22.5264 13.999 14.7175 22.2215 9.22339C30.444 3.72932 40.1109 0.796875 50 0.796875C63.2565 0.810874 75.9661 6.08321 85.3399 15.457C94.7137 24.8308 99.986 37.5403 100 50.7969ZM92.3077 50.7969C92.3077 42.4292 89.8264 34.2494 85.1776 27.292C80.5287 20.3345 73.9212 14.9118 66.1905 11.7097C58.4597 8.50749 49.9531 7.66966 41.7462 9.30211C33.5393 10.9346 26.0008 14.964 20.084 20.8808C14.1671 26.7977 10.1377 34.3362 8.50526 42.543C6.87281 50.7499 7.71064 59.2566 10.9128 66.9873C14.115 74.718 19.5377 81.3256 26.4951 85.9744C33.4526 90.6232 41.6323 93.1045 50 93.1045C61.2168 93.0918 71.9705 88.6303 79.902 80.6989C87.8335 72.7674 92.295 62.0137 92.3077 50.7969Z" fill="white"/>
</svg>
