<svg width="50" height="50" viewBox="0 0 50 50" fill="none" xmlns="http://www.w3.org/2000/svg">
<path fill-rule="evenodd" clip-rule="evenodd" d="M18.0563 19.6188C17.3496 19.6188 16.6499 19.7579 15.997 20.0284C15.3441 20.2988 14.7509 20.6952 14.2512 21.1949C13.7515 21.6946 13.3551 22.2878 13.0847 22.9407C12.8143 23.5936 12.6751 24.2933 12.6751 25C12.6751 25.7067 12.8143 26.4064 13.0847 27.0593C13.3551 27.7122 13.7515 28.3054 14.2512 28.8051C14.7509 29.3048 15.3441 29.7012 15.997 29.9716C16.6499 30.2421 17.3496 30.3813 18.0563 30.3813H23.4376V19.6188H18.0563ZM23.4376 16.4938H18.0563C16.6288 16.4938 15.2598 15.9267 14.2505 14.9173C13.2411 13.9079 12.674 12.5389 12.674 11.1115C12.674 9.68399 13.2411 8.31498 14.2505 7.30561C15.2598 6.29623 16.6288 5.72917 18.0563 5.72917H23.4376V16.4938ZM26.5626 5.72917V16.4938H31.9438C33.353 16.466 34.695 15.8868 35.6818 14.8804C36.6685 13.8741 37.2213 12.5209 37.2213 11.1115C37.2213 9.70205 36.6685 8.34886 35.6818 7.3425C34.695 6.33614 33.353 5.7569 31.9438 5.72917H26.5626ZM31.9438 19.6167C30.5313 19.6165 29.1753 20.1717 28.1686 21.1625C27.1618 22.1533 26.585 23.5002 26.5626 24.9125V25.0854C26.5798 26.1458 26.91 27.1775 27.5117 28.0509C28.1134 28.9242 28.9597 29.6003 29.9444 29.9942C30.9291 30.3881 32.0082 30.4823 33.0463 30.2649C34.0843 30.0475 35.0349 29.5282 35.7788 28.7722C36.5226 28.0163 37.0265 27.0574 37.2272 26.016C37.4278 24.9746 37.3163 23.8971 36.9065 22.9189C36.4968 21.9407 35.8071 21.1054 34.9242 20.5179C34.0412 19.9303 33.0044 19.6168 31.9438 19.6167ZM18.0563 33.5063C16.9915 33.5058 15.9505 33.8212 15.0649 34.4125C14.1794 35.0038 13.4891 35.8444 13.0813 36.828C12.6735 37.8117 12.5666 38.8941 12.7741 39.9385C12.9816 40.983 13.4941 41.9424 14.2469 42.6954C14.9997 43.4485 15.9589 43.9614 17.0032 44.1693C18.0476 44.3772 19.1301 44.2707 20.1139 43.8633C21.0977 43.4559 21.9385 42.766 22.5302 41.8806C23.1218 40.9953 23.4376 39.9544 23.4376 38.8896V33.5063H18.0563Z" fill="black"/>
</svg>
